<svg width="512" height="512" viewBox="0 0 512 512" fill="none" xmlns="http://www.w3.org/2000/svg">
<g clip-path="url(#clip0_125_9)">
<path d="M0 256C0 114.615 114.615 0 256 0H416C469.019 0 512 42.9807 512 96V256C512 397.385 397.385 512 256 512C114.615 512 0 397.385 0 256Z" fill="url(#paint0_linear_125_9)"/>
<path d="M159.47 368V123H270.77C297.37 123 320.82 128.133 341.12 138.4C361.42 148.433 377.287 162.55 388.72 180.75C400.153 198.95 405.87 220.533 405.87 245.5C405.87 270.233 400.153 291.817 388.72 310.25C377.287 328.45 361.42 342.683 341.12 352.95C320.82 362.983 297.37 368 270.77 368H159.47ZM216.17 321.45H267.97C284.303 321.45 298.42 318.417 310.32 312.35C322.453 306.05 331.787 297.183 338.32 285.75C345.087 274.317 348.47 260.9 348.47 245.5C348.47 229.867 345.087 216.45 338.32 205.25C331.787 193.817 322.453 185.067 310.32 179C298.42 172.7 284.303 169.55 267.97 169.55H216.17V321.45Z" fill="white"/>
</g>
<defs>
<linearGradient id="paint0_linear_125_9" x1="0" y1="512" x2="512" y2="0" gradientUnits="userSpaceOnUse">
<stop stop-color="#00B4D8"/>
<stop offset="1" stop-color="#A8C8FF"/>
</linearGradient>
<clipPath id="clip0_125_9">
<rect width="512" height="512" fill="white"/>
</clipPath>
</defs>
</svg>
