<svg width="512" height="512" viewBox="0 0 512 512" fill="none" xmlns="http://www.w3.org/2000/svg">
<path d="M0 256C0 114.615 114.615 0 256 0H416C469.019 0 512 42.9807 512 96V256C512 397.385 397.385 512 256 512V512C114.615 512 0 397.385 0 256V256Z" fill="url(#paint0_linear_114_7)"/>
<path d="M175.03 374.36C169.204 374.36 162.364 373.853 154.51 372.84C146.91 371.827 140.324 369.673 134.75 366.38C129.177 363.087 126.39 358.02 126.39 351.18C126.39 343.58 128.67 336.867 133.23 331.04C137.79 324.96 143.744 319.767 151.09 315.46C158.437 310.9 166.037 307.1 173.89 304.06C181.997 300.767 189.47 298.107 196.31 296.08C196.817 295.32 197.197 294.687 197.45 294.18C197.704 293.42 197.957 292.66 198.21 291.9C205.557 273.66 215.184 255.547 227.09 237.56C239.25 219.32 251.157 202.093 262.81 185.88C267.877 179.04 273.07 172.073 278.39 164.98C283.71 157.887 289.157 151.173 294.73 144.84C296.504 142.813 298.277 141.04 300.05 139.52C302.077 137.747 304.104 135.973 306.13 134.2C297.77 133.44 289.157 133.06 280.29 133.06C271.424 133.06 262.557 133.44 253.69 134.2C242.544 135.213 231.524 136.607 220.63 138.38C209.737 139.9 198.844 142.18 187.95 145.22C174.017 149.273 160.59 155.1 147.67 162.7C135.004 170.047 124.617 179.167 116.51 190.06C108.404 200.7 104.35 213.113 104.35 227.3C104.35 231.353 104.73 235.533 105.49 239.84C106.504 243.893 108.024 247.82 110.05 251.62C112.077 255.673 114.357 258.967 116.89 261.5C119.677 263.78 123.477 265.933 128.29 267.96C129.557 268.467 130.57 269.1 131.33 269.86C132.344 270.367 132.85 271.38 132.85 272.9C132.85 274.42 132.217 275.813 130.95 277.08C129.937 278.347 128.544 278.98 126.77 278.98C126.517 278.98 126.137 278.98 125.63 278.98C125.377 278.727 125.124 278.6 124.87 278.6C117.017 276.573 110.557 272.773 105.49 267.2C100.677 261.373 97.1303 254.913 94.8503 247.82C92.5703 240.473 91.4303 233.633 91.4303 227.3C91.4303 211.593 95.6103 197.787 103.97 185.88C112.33 173.72 123.35 163.46 137.03 155.1C150.964 146.487 165.784 139.9 181.49 135.34C193.144 131.793 204.924 129.26 216.83 127.74C228.737 125.967 240.77 124.573 252.93 123.56C257.237 123.053 261.544 122.8 265.85 122.8C270.41 122.8 274.844 122.8 279.15 122.8C285.484 122.8 291.69 122.927 297.77 123.18C304.104 123.433 310.437 123.813 316.77 124.32C318.037 123.307 319.177 122.42 320.19 121.66C321.204 120.647 322.217 119.633 323.23 118.62C323.99 117.353 324.75 116.467 325.51 115.96C326.27 115.2 327.537 114.82 329.31 114.82C333.11 114.82 335.01 116.467 335.01 119.76C335.01 121.787 334.25 123.813 332.73 125.84C345.397 127.613 357.684 130.4 369.59 134.2C381.497 138 392.264 143.067 401.89 149.4C411.77 155.48 419.497 163.207 425.07 172.58C430.897 181.7 433.81 192.593 433.81 205.26C433.81 220.46 430.137 235.153 422.79 249.34C415.444 263.273 405.564 276.32 393.15 288.48C380.737 300.64 366.804 311.66 351.35 321.54C335.897 331.42 319.937 339.907 303.47 347C287.004 354.093 271.044 359.54 255.59 363.34C242.67 366.633 229.37 369.293 215.69 371.32C202.01 373.347 188.457 374.36 175.03 374.36ZM171.23 364.1C184.657 364.1 198.337 362.96 212.27 360.68C226.204 358.653 239.63 355.993 252.55 352.7C266.737 349.153 281.557 344.087 297.01 337.5C312.464 330.913 327.537 323.06 342.23 313.94C357.177 304.567 370.477 294.18 382.13 282.78C394.037 271.38 403.537 259.22 410.63 246.3C417.724 233.127 421.27 219.447 421.27 205.26C421.27 193.1 418.23 182.84 412.15 174.48C406.324 166.12 398.47 159.28 388.59 153.96C378.71 148.64 367.817 144.587 355.91 141.8C344.257 138.76 332.604 136.607 320.95 135.34C318.164 137.873 315.377 140.533 312.59 143.32C310.057 146.107 307.524 148.893 304.99 151.68C297.897 160.04 289.79 170.3 280.67 182.46C271.55 194.367 262.43 207.033 253.31 220.46C244.19 233.887 235.83 246.933 228.23 259.6C220.884 272.267 215.31 283.287 211.51 292.66C221.39 290.887 231.397 289.493 241.53 288.48C251.664 287.213 261.797 286.58 271.93 286.58C278.517 286.58 285.61 287.34 293.21 288.86C300.81 290.127 306.764 293.167 311.07 297.98C311.577 298.487 311.957 298.993 312.21 299.5C312.464 300.007 312.59 300.64 312.59 301.4C312.59 302.92 311.83 304.187 310.31 305.2C309.044 306.213 307.65 306.72 306.13 306.72C304.104 306.72 302.33 305.96 300.81 304.44C297.264 301.147 292.83 299.247 287.51 298.74C282.444 297.98 277.377 297.6 272.31 297.6C261.417 297.6 250.397 298.36 239.25 299.88C228.357 301.147 217.59 302.92 206.95 305.2C206.19 307.987 205.43 310.9 204.67 313.94C204.164 316.727 203.91 319.513 203.91 322.3C203.91 328.127 204.924 332.053 206.95 334.08C208.977 335.853 211.004 336.993 213.03 337.5C215.057 338.007 216.07 339.527 216.07 342.06C216.07 343.327 215.437 344.593 214.17 345.86C213.157 346.873 211.89 347.38 210.37 347.38C209.104 347.38 208.217 347.253 207.71 347C202.897 344.973 199.35 341.807 197.07 337.5C195.044 333.193 193.777 328.507 193.27 323.44C193.017 318.12 193.017 313.56 193.27 309.76C186.684 311.787 179.084 314.7 170.47 318.5C162.11 322.047 154.764 326.607 148.43 332.18C142.35 337.5 139.31 343.96 139.31 351.56C139.31 355.36 141.337 358.147 145.39 359.92C149.444 361.693 154.004 362.833 159.07 363.34C164.137 363.847 168.19 364.1 171.23 364.1Z" fill="#1C1C1C"/>
<defs>
<linearGradient id="paint0_linear_114_7" x1="0" y1="512" x2="512" y2="0" gradientUnits="userSpaceOnUse">
<stop stop-color="#00B4D8"/>
<stop offset="1" stop-color="#A8C8FF"/>
</linearGradient>
</defs>
</svg>
